<svg xmlns="http://www.w3.org/2000/svg" xmlns:xlink="http://www.w3.org/1999/xlink" version="1.1" x="0px" y="0px" viewBox="0 0 100 125" enable-background="new 0 0 100 100" xml:space="preserve"><g><path d="M66.574,88.534h21.965V11.46H66.574c-3.166,0-5.73-2.564-5.73-5.73c0-3.166,2.564-5.73,5.73-5.73h22.712   C95.194,0,100,4.806,100,10.713v78.57C100,95.191,95.194,100,89.286,100H66.574c-3.166,0-5.73-2.569-5.73-5.733   C60.844,91.104,63.408,88.534,66.574,88.534z"/><path d="M67.734,45.947l-23.51-23.51c-2.24-2.239-5.869-2.239-8.107,0c-2.24,2.236-2.24,5.867,0,8.103l13.537,13.537H5.729   C2.564,44.076,0,46.641,0,49.806s2.564,5.731,5.729,5.731h44.31L36.117,69.452c-2.24,2.239-2.24,5.869,0,8.108   c1.119,1.119,2.588,1.679,4.053,1.679s2.936-0.56,4.055-1.679l23.51-23.511c1.076-1.073,1.68-2.53,1.68-4.051   S68.811,47.02,67.734,45.947z"/></g><text x="0" y="115" fill="#000000" font-size="5px" font-weight="bold" font-family="'Helvetica Neue', Helvetica, Arial-Unicode, Arial, Sans-serif">Created by Stefan Parnarov</text><text x="0" y="120" fill="#000000" font-size="5px" font-weight="bold" font-family="'Helvetica Neue', Helvetica, Arial-Unicode, Arial, Sans-serif">from the Noun Project</text></svg>