<svg xmlns="http://www.w3.org/2000/svg" data-name="Layer 1" viewBox="0 0 32 40" x="0px" y="0px"><title>Artboard 44</title><path d="M29.84961,14.30511a2.05642,2.05642,0,0,0-.77734-1.38281l-3.54981-2.78955V4.78705h.06348a.5.5,0,0,0,0-1H21.45117a.5.5,0,0,0,0,1h.06348V6.98383L17.28027,3.65717a2.067,2.067,0,0,0-2.56054,0L2.92773,12.9223a2.0724,2.0724,0,1,0,2.56055,3.25928L6,15.77954V26.78705H5a1,1,0,0,0,0,2H27a1,1,0,0,0,0-2H26V15.77954l.51172.402a2.07245,2.07245,0,0,0,3.33789-1.87647ZM16,26a6.5,6.5,0,1,1,6.5-6.5A6.50792,6.50792,0,0,1,16,26Z"/><path d="M15.57031,18.69824l1.25489.418a1.99669,1.99669,0,0,1,1.40527,1.94141A2.0987,2.0987,0,0,1,16.5,23.05292V24h-1v-.94708a2.0987,2.0987,0,0,1-1.73047-1.9953h1.25A.90532.90532,0,0,0,16,21.85938a.90532.90532,0,0,0,.98047-.80176.74412.74412,0,0,0-.55078-.75586l-1.25489-.418a1.99669,1.99669,0,0,1-1.40527-1.94141A2.09876,2.09876,0,0,1,15.5,15.947V15h1v.947a2.09876,2.09876,0,0,1,1.73047,1.99536h-1.25A.90532.90532,0,0,0,16,17.14063a.90532.90532,0,0,0-.98047.80175A.74411.74411,0,0,0,15.57031,18.69824Z"/><text x="0" y="47" fill="#000000" font-size="5px" font-weight="bold" font-family="'Helvetica Neue', Helvetica, Arial-Unicode, Arial, Sans-serif">Created by David</text><text x="0" y="52" fill="#000000" font-size="5px" font-weight="bold" font-family="'Helvetica Neue', Helvetica, Arial-Unicode, Arial, Sans-serif">from the Noun Project</text></svg>